<?xml version="1.0" standalone="no"?>
<!DOCTYPE svg PUBLIC "-//W3C//DTD SVG 20010904//EN"
 "http://www.w3.org/TR/2001/REC-SVG-20010904/DTD/svg10.dtd">
<svg version="1.0" xmlns="http://www.w3.org/2000/svg"
 width="700.000000pt" height="700.000000pt" viewBox="0 0 700.000000 700.000000"
 preserveAspectRatio="xMidYMid meet">
<metadata>
Created by potrace 1.14, written by Peter Selinger 2001-2017
</metadata>
<g transform="translate(0.000000,700.000000) scale(0.100000,-0.100000)"
fill="#000000" stroke="none">
<path d="M3789 6945 c42 -69 779 -1210 1077 -1665 91 -140 460 -706 589 -905
29 -44 108 -165 176 -270 317 -485 350 -535 374 -577 14 -26 14 -28 -7 -39
-13 -7 -25 -15 -28 -18 -3 -4 -68 -54 -145 -111 -76 -58 -146 -110 -155 -117
-8 -7 -42 -32 -75 -57 -33 -25 -64 -49 -70 -54 -5 -4 -109 -82 -230 -173 -121
-91 -294 -221 -385 -290 -229 -173 -589 -445 -1025 -774 -349 -263 -457 -345
-480 -363 -5 -4 -75 -57 -155 -116 -131 -98 -192 -148 -165 -134 6 3 89 51
185 105 96 55 207 117 245 138 39 21 81 46 95 55 14 10 48 29 75 44 28 15 66
36 85 47 29 17 563 321 680 387 19 10 62 35 95 54 33 20 80 46 105 60 25 14
95 53 155 88 61 34 130 74 155 88 25 14 59 33 75 42 123 71 331 188 385 217
36 20 72 41 80 47 8 7 33 21 55 33 22 11 56 30 75 41 19 12 51 29 70 40 19 11
148 84 285 162 138 79 270 154 295 168 25 14 140 79 255 145 116 66 230 131
255 145 25 14 70 39 100 56 30 18 63 35 73 39 37 14 30 36 -36 105 -35 37 -89
94 -118 126 -30 32 -65 71 -79 85 -14 15 -52 56 -85 91 -33 36 -108 117 -167
181 -59 63 -115 124 -125 136 -19 22 -206 223 -314 338 -36 39 -87 94 -115
124 -27 30 -66 73 -87 95 -21 23 -78 83 -125 135 -48 52 -98 106 -112 121 -14
15 -68 73 -120 130 -52 56 -111 120 -131 141 -44 46 -207 223 -244 264 -15 17
-53 57 -84 90 -129 138 -192 206 -301 324 -63 68 -128 138 -145 156 -36 37
-212 227 -251 270 -15 17 -84 91 -153 165 -69 74 -155 165 -191 204 -36 38
-100 105 -143 150 -76 79 -77 80 -48 31z"/>
<path d="M3875 5701 c-48 -27 -239 -135 -335 -189 -1212 -684 -1146 -647
-1255 -708 -38 -21 -78 -43 -87 -49 -9 -5 -34 -20 -55 -31 -21 -12 -149 -83
-283 -159 -135 -76 -261 -147 -280 -158 -19 -11 -70 -39 -113 -64 -42 -24 -99
-55 -125 -70 -26 -14 -60 -34 -77 -43 -226 -128 -346 -196 -375 -212 -19 -11
-181 -103 -360 -203 -179 -101 -345 -194 -370 -209 -25 -14 -71 -40 -103 -57
l-57 -32 47 -51 c26 -28 66 -71 88 -95 22 -24 54 -58 70 -76 17 -17 77 -83
135 -145 58 -62 116 -125 130 -140 14 -15 66 -71 115 -125 50 -54 106 -114
125 -135 19 -20 75 -80 124 -133 48 -53 102 -112 120 -130 110 -117 252 -271
269 -290 10 -12 65 -71 121 -132 57 -60 115 -123 130 -140 15 -16 72 -77 125
-135 54 -58 109 -117 122 -131 13 -14 74 -79 134 -144 142 -152 145 -155 245
-264 47 -51 96 -105 110 -120 35 -37 232 -249 266 -287 16 -17 79 -84 139
-149 61 -65 115 -123 120 -129 62 -67 315 -341 383 -414 22 -23 55 -59 75 -81
64 -71 55 -51 -52 112 -59 89 -158 242 -221 340 -163 252 -385 594 -685 1057
-143 220 -313 483 -378 583 -137 212 -244 376 -372 572 -50 77 -112 174 -139
215 -49 77 -247 383 -266 410 -5 8 -30 47 -55 85 -49 77 -50 69 16 118 13 9
164 122 334 250 171 127 525 392 785 587 1017 759 1755 1313 1765 1321 15 15
2 10 -50 -20z"/>
<path d="M4710 4795 c-74 -12 -153 -25 -175 -29 -37 -6 -105 -17 -180 -31 -16
-2 -48 -8 -70 -11 -22 -3 -98 -16 -168 -27 l-128 -22 -70 -180 c-38 -99 -69
-184 -69 -188 0 -7 73 -2 101 7 8 3 32 8 54 11 22 3 92 14 155 25 63 11 133
22 155 26 22 3 43 9 46 12 3 4 25 57 47 117 23 61 47 124 53 141 11 29 24 35
206 99 106 37 193 70 193 72 0 4 14 6 -150 -22z"/>
<path d="M4056 4223 c-137 -23 -252 -46 -256 -50 -4 -4 -19 -44 -35 -88 -15
-44 -49 -138 -75 -210 -40 -109 -229 -635 -325 -905 -15 -41 -31 -84 -35 -95
-5 -11 -19 -49 -31 -85 -12 -36 -23 -66 -24 -67 -2 -4 -100 -22 -145 -28 -83
-11 -186 -27 -202 -31 -15 -4 -54 42 -78 91 -5 10 -210 345 -216 354 -3 3
-156 -20 -294 -45 -40 -7 -192 -32 -230 -39 -19 -3 -55 -8 -80 -12 -25 -3 -63
-11 -85 -18 l-40 -13 75 -2 c41 -2 82 -4 90 -5 8 -1 42 -3 75 -4 l60 -1 69
-113 c38 -61 79 -128 91 -147 13 -19 82 -132 155 -250 73 -118 144 -234 159
-257 16 -26 32 -40 41 -38 8 2 62 11 120 20 58 9 182 30 275 45 94 16 190 31
215 35 25 3 52 8 60 10 8 3 33 7 55 10 53 6 148 24 152 28 2 2 14 35 27 73 21
60 181 492 369 999 31 83 106 285 167 450 61 165 122 328 135 362 13 35 20 64
17 66 -4 2 -119 -16 -256 -40z"/>
</g>
</svg>
