<svg width="229" height="229" viewBox="0 0 229 229" fill="none" xmlns="http://www.w3.org/2000/svg">
<path d="M141.32 89.4008L124.301 92.2693L107.09 140.077L95.1378 141.942L86.0542 127.169L61.1941 131.328L72.1899 131.95L88.4446 158.244L117.607 153.463L141.32 89.4008Z" fill="#E2E2E2"/>
<path d="M125.735 88.4447L130.516 76.0146L159.678 71.2338L146.292 76.0146L142.707 85.5762L125.735 88.4447Z" fill="#E2E2E2"/>
<path d="M0 113.969L130.038 40.6367L32.0313 113.969L106.612 229L0 113.969Z" fill="#00D1FF"/>
<path d="M196.969 114.261C196.969 114.261 122.388 0 122.866 0C123.344 0 229 114.261 229 114.261L99.4405 187.885L196.969 114.261Z" fill="#00D1FF"/>
</svg>
